<svg width="640.5849365234375px" height="178.39736328125px" xmlns="http://www.w3.org/2000/svg" viewBox="-70.29246826171874 -14.198681640624997 640.5849365234375 178.39736328125" style="background: rgb(255, 255, 255);" preserveAspectRatio="xMidYMid"><defs>
  <filter id="editing-scratch" x="-100%" y="-100%" width="300%" height="300%">
    <!-- COLOR -->
    <feFlood flood-color="#689cc5" flood-opacity="0.75" result="COLOR-blu"></feFlood>
    <feFlood flood-color="#5e6fa3" flood-opacity="0.4" result="COLOR-red"></feFlood>
    <!-- COLOR END -->

    <!-- Texture -->
    <feTurbulence baseFrequency=".05" type="fractalNoise" numOctaves="3" seed="0" result="Texture_10"></feTurbulence>
    <feColorMatrix type="matrix" values="0 0 0 0 0,
    0 0 0 0 0,
    0 0 0 0 0,
    0 0 0 -2.1 1.1" in="Texture_10" result="Texture_20"></feColorMatrix>

    <feColorMatrix result="Texture_30" type="matrix" values="0 0 0 0 0,
    0 0 0 0 0,
    0 0 0 0 0,
    0 0 0 -1.7 1.8" in="Texture_10"></feColorMatrix>
    <!-- Texture -->

    <!-- FILL -->
    <feOffset dx="-3" dy="4" in="SourceAlpha" result="FILL_10"></feOffset>
    <feDisplacementMap scale="17" in="FILL_10" in2="Texture_10" result="FILL_20"></feDisplacementMap>
    <feComposite operator="in" in="Texture_30" in2="FILL_20" result="FILL_40"></feComposite>
    <feComposite operator="in" in="COLOR-blu" in2="FILL_40" result="FILL_50"></feComposite>
    <!-- FILL END-->

    <!-- OUTLINE -->
    <feMorphology operator="dilate" radius="3" in="SourceGraphic" result="OUTLINE_10"></feMorphology>
    <feComposite operator="out" in="OUTLINE_10" in2="SourceGraphic" result="OUTLINE_20"></feComposite>
    <feDisplacementMap scale="7" in="OUTLINE_20" in2="Texture_10" result="OUTLINE_30"></feDisplacementMap>
    <feComposite operator="arithmetic" k2="-1" k3="1" in="Texture_20" in2="OUTLINE_30" result="OUTLINE_40"></feComposite>
    <!-- OUTLINE END-->

    <!-- BEVEL OUTLINE -->
    <feConvolveMatrix order="8,8" divisor="1" kernelMatrix="1 0 0 0 0 0 0 0 0 1 0 0 0 0 0 0 0 0 1 0 0 0 0 0 0 0 0 1 0 0 0 0 0 0 0 0 1 0 0 0 0 0 0 0 0 1 0 0 0 0 0 0 0 0 1 0 0 0 0 0 0 0 0 1 " in="SourceGraphic" result="BEVEL_10"></feConvolveMatrix>
    <feMorphology operator="dilate" radius="2" in="BEVEL_10" result="BEVEL_20"></feMorphology>
    <feComposite operator="out" in="BEVEL_20" in2="BEVEL_10" result="BEVEL_30"></feComposite>
    <feDisplacementMap scale="7" in="BEVEL_30" in2="Texture_10" result="BEVEL_40"></feDisplacementMap>
    <feComposite operator="arithmetic" k2="-1" k3="1" in="Texture_20" in2="BEVEL_40" result="BEVEL_50"></feComposite>
    <feOffset dx="-7" dy="-7" in="BEVEL_50" result="BEVEL_60"></feOffset>
    <feComposite operator="out" in="BEVEL_60" in2="OUTLINE_10" result="BEVEL_70"></feComposite>
    <!-- BEVEL OUTLINE END -->

    <!-- BEVEL FILL -->
    <feOffset dx="-9" dy="-9" in="BEVEL_10" result="BEVEL-FILL_10"></feOffset>
    <feComposite operator="out" in="BEVEL-FILL_10" in2="OUTLINE_10" result="BEVEL-FILL_20"></feComposite>
    <feDisplacementMap scale="17" in="BEVEL-FILL_20" in2="Texture_10" result="BEVEL-FILL_30"></feDisplacementMap>
    <feComposite operator="in" in="COLOR-red" in2="BEVEL-FILL_30" result="BEVEL-FILL_50"></feComposite> <!-- -->
    <!-- BEVEL FILL END-->

    <feMerge result="merge2">
     <feMergeNode in="BEVEL-FILL_50"></feMergeNode>
     <feMergeNode in="BEVEL_70"></feMergeNode>
     <feMergeNode in="FILL_50"></feMergeNode>
      <feMergeNode in="OUTLINE_40"></feMergeNode>
    </feMerge>
  </filter>
</defs>
<g filter="url(#editing-scratch)"><g transform="translate(21.634370803833008, 115.44062805175781)"><path d="M44.42 5.27L44.42 5.27L44.42 5.27Q44.42 8.88 43.20 11.53L43.20 11.53L43.20 11.53Q41.99 14.18 40.00 15.79L40.00 15.79L40.00 15.79Q38.01 17.39 34.95 18.36L34.95 18.36L34.95 18.36Q31.90 19.33 28.71 19.68L28.71 19.68L28.71 19.68Q25.53 20.02 21.40 20.02L21.40 20.02L21.40 20.02Q13.78 20.02 8.41 18.30L8.41 18.30L8.41 18.30Q3.04 16.58 3.04 13.70L3.04 13.70L3.04 13.70Q3.04 7.78 6.36 0.32L6.36 0.32L6.36 0.32Q1.70-1.26 1.70-6.24L1.70-6.24L1.70-6.24Q1.70-11.02 7.62-15.89L7.62-15.89L7.62-15.89Q4.62-18.12 3.10-21.20L3.10-21.20L3.10-21.20Q1.58-24.28 1.58-27.60L1.58-27.60L1.58-27.60Q1.58-30.76 3.00-33.78L3.00-33.78L3.00-33.78Q4.42-36.80 6.89-39.15L6.89-39.15L6.89-39.15Q9.36-41.50 13.01-42.94L13.01-42.94L13.01-42.94Q16.66-44.38 20.83-44.38L20.83-44.38L20.83-44.38Q24.36-44.38 26.79-43.77L26.79-43.77L26.79-43.77Q29.22-43.16 31.49-41.78L31.49-41.78L31.49-41.78Q31.53-41.82 32.34-42.72L32.34-42.72L32.34-42.72Q33.15-43.61 33.86-44.22L33.86-44.22L33.86-44.22Q34.57-44.82 35.75-45.63L35.75-45.63L35.75-45.63Q36.92-46.44 38.44-46.87L38.44-46.87L38.44-46.87Q39.96-47.30 41.62-47.30L41.62-47.30L41.62-47.30Q44.30-47.30 44.99-46.71L44.99-46.71L44.99-46.71Q45.67-46.12 45.67-44.38L45.67-44.38L45.67-43.69L45.67-43.69Q45.67-42.80 45.65-42.23L45.65-42.23L45.65-42.23Q45.63-41.66 45.43-41.16L45.43-41.16L45.43-41.16Q45.23-40.65 45.07-40.37L45.07-40.37L45.07-40.37Q44.90-40.08 44.38-39.84L44.38-39.84L44.38-39.84Q43.85-39.60 43.43-39.49L43.43-39.49L43.43-39.49Q43.00-39.39 41.97-39.31L41.97-39.31L41.97-39.31Q40.93-39.23 40.10-39.23L40.10-39.23L40.10-39.23Q39.27-39.23 37.65-39.23L37.65-39.23L37.65-39.23Q37.29-39.23 36.45-39.27L36.45-39.27L36.45-39.27Q35.62-39.31 35.18-39.31L35.18-39.31L35.18-39.31Q37.93-37.45 39.55-34.16L39.55-34.16L39.55-34.16Q41.18-30.88 41.18-27.03L41.18-27.03L41.18-27.03Q41.18-20.59 36.01-16.25L36.01-16.25L36.01-16.25Q30.84-11.92 21.76-11.92L21.76-11.92L21.76-11.92Q19.74-11.92 17.83-12.22L17.83-12.22L17.83-12.22Q15.93-12.52 14.35-12.95L14.35-12.95L14.35-12.95Q12.77-13.37 12.73-13.37L12.73-13.37L12.73-13.37Q11.39-10.70 11.39-8.06L11.39-8.06L11.39-8.06Q11.39-6.81 13.21-6.28L13.21-6.28L13.21-6.28Q15.04-5.75 17.95-5.71L17.95-5.71L17.95-5.71Q20.87-5.67 24.38-5.69L24.38-5.69L24.38-5.69Q27.88-5.71 31.41-5.31L31.41-5.31L31.41-5.31Q34.93-4.90 37.85-3.93L37.85-3.93L37.85-3.93Q40.77-2.96 42.59-0.63L42.59-0.63L42.59-0.63Q44.42 1.70 44.42 5.27ZM21.32-18.80L21.32-18.80L21.32-18.80Q24.48-18.80 26.79-19.55L26.79-19.55L26.79-19.55Q29.10-20.30 30.35-21.62L30.35-21.62L30.35-21.62Q31.61-22.94 32.20-24.46L32.20-24.46L32.20-24.46Q32.79-25.98 32.79-27.80L32.79-27.80L32.79-27.80Q32.79-31.81 29.93-34.69L29.93-34.69L29.93-34.69Q27.07-37.57 21.48-37.57L21.48-37.57L21.48-37.57Q15.93-37.57 13.13-34.75L13.13-34.75L13.13-34.75Q10.33-31.94 10.33-27.84L10.33-27.84L10.33-27.84Q10.33-24.03 12.99-21.42L12.99-21.42L12.99-21.42Q15.64-18.80 21.32-18.80ZM24.56 1.74L16.66 1.74L16.66 1.74Q12.28 1.46 10.54 1.01L10.54 1.01L10.54 1.01Q10.54 2.76 10.56 3.63L10.56 3.63L10.56 3.63Q10.58 4.50 10.68 5.94L10.68 5.94L10.68 5.94Q10.78 7.38 11.00 8.15L11.00 8.15L11.00 8.15Q11.23 8.92 11.63 9.79L11.63 9.79L11.63 9.79Q12.04 10.66 12.69 11.10L12.69 11.10L12.69 11.10Q13.33 11.55 14.23 11.71L14.23 11.71L14.23 11.71Q19.33 12.64 23.51 12.64L23.51 12.64L23.51 12.64Q26.91 12.64 29.20 12.18L29.20 12.18L29.20 12.18Q31.49 11.71 32.69 10.82L32.69 10.82L32.69 10.82Q33.88 9.93 34.35 8.86L34.35 8.86L34.35 8.86Q34.81 7.78 34.81 6.28L34.81 6.28L34.81 6.28Q34.81 1.74 24.56 1.74L24.56 1.74ZM63.30-39.72L63.30-39.72L63.30-37.08L63.30-37.08Q65.13-40.00 68.73-42.19L68.73-42.19L68.73-42.19Q72.34-44.38 75.62-44.38L75.62-44.38L75.62-44.38Q77.77-44.38 79.72-43.67L79.72-43.67L79.72-43.67Q81.66-42.96 83.10-41.14L83.10-41.14L83.10-41.14Q84.54-39.31 84.54-36.68L84.54-36.68L84.54-36.68Q84.54-29.46 76.88-29.46L76.88-29.46L76.88-29.46Q76.72-29.46 76.56-29.50L76.56-29.50L76.56-29.50Q76.39-29.54 76.29-29.63L76.29-29.63L76.29-29.63Q76.19-29.71 76.11-29.79L76.11-29.79L76.11-29.79Q76.03-29.87 75.97-30.03L75.97-30.03L75.97-30.03Q75.91-30.19 75.87-30.31L75.87-30.31L75.87-30.31Q75.83-30.44 75.79-30.70L75.79-30.70L75.79-30.70Q75.75-30.96 75.73-31.13L75.73-31.13L75.73-31.13Q75.71-31.29 75.68-31.59L75.68-31.59L75.68-31.59Q75.66-31.90 75.62-32.10L75.62-32.10L75.14-36.31L75.14-36.31Q74.04-36.84 72.75-36.84L72.75-36.84L72.75-36.84Q70.40-36.84 68.03-35.12L68.03-35.12L68.03-35.12Q65.65-33.39 64.52-31.13L64.52-31.13L64.52-10.62L64.52-10.62Q64.52-10.01 64.58-9.67L64.58-9.67L64.58-9.67Q64.64-9.32 64.86-8.88L64.86-8.88L64.86-8.88Q65.09-8.43 65.65-8.21L65.65-8.21L65.65-8.21Q66.22-7.98 67.11-7.98L67.11-7.98L67.11-7.98Q68.65-7.98 69.75-7.50L69.75-7.50L69.75-7.50Q70.84-7.01 70.84-6.04L70.84-6.04L70.84-6.04Q70.84-4.09 70.19-2.19L70.19-2.19L70.19-2.19Q69.54-0.28 68.29 0.32L68.29 0.32L68.29 0.32Q65.45 0 59.98 0L59.98 0L59.98 0Q54.51 0 51.59 0.32L51.59 0.32L51.59 0.32Q50.25-0.28 49.65-2.17L49.65-2.17L49.65-2.17Q49.04-4.05 49.04-6.04L49.04-6.04L49.04-6.04Q49.04-7.01 50.13-7.50L50.13-7.50L50.13-7.50Q51.23-7.98 52.77-7.98L52.77-7.98L52.77-7.98Q54.35-7.98 54.83-8.65L54.83-8.65L54.83-8.65Q55.32-9.32 55.32-10.54L55.32-10.54L55.32-31.85L55.32-31.85Q55.32-34.00 54.08-34.89L54.08-34.89L54.08-34.89Q52.85-35.79 49.32-35.95L49.32-35.95L49.32-35.95Q48.79-36.07 48.65-36.47L48.65-36.47L48.65-36.47Q48.51-36.88 48.51-38.22L48.51-38.22L48.51-38.22Q48.51-40.28 48.96-41.86L48.96-41.86L48.96-41.86Q49.40-43.45 49.85-43.69L49.85-43.69L49.85-43.69Q52.73-43.24 55.48-43.24L55.48-43.24L55.48-43.24Q57.18-43.24 59.07-43.47L59.07-43.47L59.07-43.47Q60.95-43.69 61.07-43.69L61.07-43.69L61.07-43.69Q62.49-43.69 62.90-42.98L62.90-42.98L62.90-42.98Q63.30-42.27 63.30-39.72ZM117.45-5.51L117.45-5.51L117.45-5.51Q114.49-2.39 109.97-0.65L109.97-0.65L109.97-0.65Q105.45 1.09 100.79 1.09L100.79 1.09L100.79 1.09Q95.00 1.09 91.23-1.99L91.23-1.99L91.23-1.99Q87.46-5.07 87.46-10.90L87.46-10.90L87.46-10.90Q87.46-17.14 93.50-20.30L93.50-20.30L93.50-20.30Q98.04-22.74 109.06-24.52L109.06-24.52L109.06-24.52Q111.13-24.88 115.79-25.57L115.79-25.57L115.79-25.57Q115.79-32.46 114.04-35.06L114.04-35.06L114.04-35.06Q112.30-37.65 107.36-37.65L107.36-37.65L107.36-37.65Q103.75-37.65 99.33-36.03L99.33-36.03L99.33-36.03Q94.92-34.41 92.28-31.53L92.28-31.53L92.28-31.53Q89.00-34.29 89.00-36.92L89.00-36.92L89.00-36.92Q89.00-39.19 92.12-40.95L92.12-40.95L92.12-40.95Q95.24-42.72 99.47-43.55L99.47-43.55L99.47-43.55Q103.71-44.38 107.96-44.38L107.96-44.38L107.96-44.38Q111.98-44.38 115.00-43.38L115.00-43.38L115.00-43.38Q118.02-42.39 120.33-40.12L120.33-40.12L120.33-40.12Q122.64-37.85 123.83-33.88L123.83-33.88L123.83-33.88Q125.03-29.91 125.03-24.24L125.03-24.24L125.03-11.27L125.03-11.27Q125.03-9.60 125.29-8.77L125.29-8.77L125.29-8.77Q125.55-7.94 125.88-7.76L125.88-7.76L125.88-7.76Q126.20-7.58 126.93-7.50L126.93-7.50L126.93-7.50Q128.19-7.38 128.80-7.27L128.80-7.27L128.80-7.27Q129.40-7.17 130.21-6.97L130.21-6.97L130.21-6.97Q131.02-6.77 131.37-6.44L131.37-6.44L131.37-6.44Q131.71-6.12 131.71-5.63L131.71-5.63L131.71-5.63Q131.71-0.85 130.38 0.32L130.38 0.32L130.38 0.32Q128.43 0 125.31 0L125.31 0L125.31 0Q122.47 0 120.04 0.28L120.04 0.28L120.04 0.28Q119.76 0.08 119.33-0.28L119.33-0.28L119.33-0.28Q118.91-0.65 118.18-2.15L118.18-2.15L118.18-2.15Q117.45-3.65 117.45-5.51ZM102.66-6.12L102.66-6.12L102.66-6.12Q106.34-6.12 110.64-8.17L110.64-8.17L110.64-8.17Q114.94-10.21 115.83-11.87L115.83-11.87L115.83-19.05L115.83-19.05Q104.76-17.06 100.89-15.48L100.89-15.48L100.89-15.48Q97.02-13.90 97.02-11.02L97.02-11.02L97.02-11.02Q97.02-6.12 102.66-6.12ZM169.20-18.80L169.20-18.80L169.20-29.38L169.20-29.38Q167.05-33.23 163.53-35.38L163.53-35.38L163.53-35.38Q160.00-37.53 156.23-37.53L156.23-37.53L156.23-37.53Q151.05-37.53 147.50-33.46L147.50-33.46L147.50-33.46Q143.95-29.38 143.95-21.60L143.95-21.60L143.95-21.60Q143.95-14.14 147.76-9.97L147.76-9.97L147.76-9.97Q151.57-5.80 156.80-5.80L156.80-5.80L156.80-5.80Q159.07-5.80 161.26-6.63L161.26-6.63L161.26-6.63Q163.45-7.46 165.23-9.04L165.23-9.04L165.23-9.04Q167.01-10.62 168.11-13.15L168.11-13.15L168.11-13.15Q169.20-15.68 169.20-18.80ZM178.40-54.63L178.40-54.63L178.40-10.17L178.40-10.17Q178.40-9.60 178.48-9.22L178.48-9.22L178.48-9.22Q178.56-8.83 178.83-8.41L178.83-8.41L178.83-8.41Q179.09-7.98 179.70-7.74L179.70-7.74L179.70-7.74Q180.31-7.50 181.28-7.46L181.28-7.46L181.28-7.46Q185.09-7.29 185.09-5.75L185.09-5.75L185.09-5.75Q185.09-0.89 183.71 0.32L183.71 0.32L183.71 0.32Q181.48 0 178.89 0L178.89 0L178.89 0Q175.24 0 171.75 0.32L171.75 0.32L171.75 0.32Q169.20-0.85 169.20-5.31L169.20-5.31L169.20-5.67L169.20-5.67Q167.01-2.43 163.00-0.67L163.00-0.67L163.00-0.67Q158.99 1.09 154.73 1.09L154.73 1.09L154.73 1.09Q150.84 1.09 147.28-0.36L147.28-0.36L147.28-0.36Q143.71-1.82 140.81-4.56L140.81-4.56L140.81-4.56Q137.91-7.29 136.17-11.71L136.17-11.71L136.17-11.71Q134.43-16.13 134.43-21.60L134.43-21.60L134.43-21.60Q134.43-27.07 136.25-31.49L136.25-31.49L136.25-31.49Q138.08-35.91 141.14-38.64L141.14-38.64L141.14-38.64Q144.20-41.38 147.97-42.84L147.97-42.84L147.97-42.84Q151.73-44.30 155.83-44.34L155.83-44.34L156.07-44.34L156.07-44.34Q164.05-44.34 169.20-38.38L169.20-38.38L169.20-49.00L169.20-49.00Q169.20-51.15 167.97-52.04L167.97-52.04L167.97-52.04Q166.73-52.93 163.20-53.09L163.20-53.09L163.20-53.09Q162.68-53.21 162.53-53.62L162.53-53.62L162.53-53.62Q162.39-54.02 162.39-55.36L162.39-55.36L162.39-55.36Q162.39-57.43 162.84-59.01L162.84-59.01L162.84-59.01Q163.28-60.59 163.73-60.83L163.73-60.83L163.73-60.83Q167.09-60.39 170.17-60.39L170.17-60.39L170.17-60.39Q172.00-60.39 174.02-60.61L174.02-60.61L174.02-60.61Q176.05-60.83 176.17-60.83L176.17-60.83L176.17-60.83Q177.59-60.83 178.02-60.12L178.02-60.12L178.02-60.12Q178.44-59.41 178.44-56.86L178.44-56.86L178.44-56.86Q178.44-56.58 178.42-55.83L178.42-55.83L178.42-55.83Q178.40-55.08 178.40-54.63ZM224.72-10.74L224.72-10.74L224.72-10.74Q224.72-6.65 222.23-3.95L222.23-3.95L222.23-3.95Q219.74-1.26 215.65-0.08L215.65-0.08L215.65-0.08Q211.55 1.09 205.96 1.09L205.96 1.09L205.96 1.09Q197.37 1.09 192.53-1.38L192.53-1.38L192.53-1.38Q187.68-3.85 187.68-8.96L187.68-8.96L187.68-8.96Q187.68-14.75 194.77-14.75L194.77-14.75L194.77-14.75Q195.91-14.75 196.27-14.31L196.27-14.31L196.27-14.31Q196.64-13.86 196.64-12.60L196.64-12.60L196.64-7.09L196.64-7.09Q198.14-6.28 201.08-5.84L201.08-5.84L201.08-5.84Q204.01-5.39 207.01-5.39L207.01-5.39L207.01-5.39Q210.58-5.39 212.91-6.87L212.91-6.87L212.91-6.87Q215.24-8.35 215.24-10.94L215.24-10.94L215.24-10.94Q215.24-12.77 214.07-14.20L214.07-14.20L214.07-14.20Q212.89-15.64 210.99-16.54L210.99-16.54L210.99-16.54Q209.08-17.43 206.63-18.34L206.63-18.34L206.63-18.34Q204.18-19.25 201.64-20.02L201.64-20.02L201.64-20.02Q199.11-20.79 196.66-21.97L196.66-21.97L196.66-21.97Q194.21-23.14 192.30-24.52L192.30-24.52L192.30-24.52Q190.40-25.90 189.22-28.13L189.22-28.13L189.22-28.13Q188.05-30.35 188.05-33.15L188.05-33.15L188.05-33.15Q188.05-36.76 190.72-39.39L190.72-39.39L190.72-39.39Q193.40-42.03 197.27-43.20L197.27-43.20L197.27-43.20Q201.14-44.38 205.55-44.38L205.55-44.38L205.55-44.38Q223.71-44.38 223.71-33.84L223.71-33.84L223.71-33.84Q223.71-33.19 223.49-32.46L223.49-32.46L223.49-32.46Q223.27-31.73 222.64-30.76L222.64-30.76L222.64-30.76Q222.01-29.79 220.53-29.16L220.53-29.16L220.53-29.16Q219.05-28.53 216.90-28.53L216.90-28.53L216.90-28.53Q216.50-28.53 216.23-28.61L216.23-28.61L216.23-28.61Q215.97-28.69 215.83-28.79L215.83-28.79L215.83-28.79Q215.69-28.90 215.59-29.16L215.59-29.16L215.59-29.16Q215.48-29.42 215.46-29.54L215.46-29.54L215.46-29.54Q215.44-29.67 215.38-30.09L215.38-30.09L215.38-30.09Q215.32-30.52 215.32-30.68L215.32-30.68L214.75-36.35L214.75-36.35Q214.19-36.92 211.25-37.61L211.25-37.61L211.25-37.61Q208.31-38.30 206.20-38.30L206.20-38.30L206.20-38.30Q202.07-38.30 200.06-36.76L200.06-36.76L200.06-36.76Q198.06-35.22 198.06-32.87L198.06-32.87L198.06-32.87Q198.06-31.17 199.54-29.87L199.54-29.87L199.54-29.87Q201.02-28.57 203.37-27.66L203.37-27.66L203.37-27.66Q205.72-26.75 208.55-25.86L208.55-25.86L208.55-25.86Q211.39-24.96 214.23-23.73L214.23-23.73L214.23-23.73Q217.06-22.49 219.42-20.91L219.42-20.91L219.42-20.91Q221.77-19.33 223.24-16.72L223.24-16.72L223.24-16.72Q224.72-14.10 224.72-10.74ZM256.01-8.11L256.01-8.11L256.01-8.11Q257.23-5.80 257.23-3.77L257.23-3.77L257.23-3.77Q257.23-2.63 256.23-1.80L256.23-1.80L256.23-1.80Q255.24-0.97 253.66-0.53L253.66-0.53L253.66-0.53Q252.08-0.08 250.50 0.12L250.50 0.12L250.50 0.12Q248.92 0.32 247.42 0.32L247.42 0.32L247.42 0.32Q245.15 0.32 243.20-0.32L243.20-0.32L243.20-0.32Q241.26-0.97 239.50-2.45L239.50-2.45L239.50-2.45Q237.73-3.93 236.72-6.75L236.72-6.75L236.72-6.75Q235.71-9.56 235.71-13.46L235.71-13.46L235.71-36.96L233.96-36.96L233.96-36.96Q229.18-36.96 228.74-36.92L228.74-36.92L228.74-36.92Q227.40-37.41 227.40-40.04L227.40-40.04L227.40-40.04Q227.40-43.24 229.43-43.24L229.43-43.24L235.71-43.24L235.71-43.24Q235.87-44.54 236.01-46.63L236.01-46.63L236.01-46.63Q236.15-48.71 236.27-49.93L236.27-49.93L236.27-49.93Q236.40-51.15 236.66-52.81L236.66-52.81L236.66-52.81Q236.92-54.47 237.39-55.42L237.39-55.42L237.39-55.42Q237.85-56.37 238.58-57.31L238.58-57.31L238.58-57.31Q239.31-58.24 240.47-58.66L240.47-58.66L240.47-58.66Q241.62-59.09 243.20-59.09L243.20-59.09L243.20-59.09Q244.30-59.09 244.91-58.72L244.91-58.72L244.91-43.24L250.30-43.24L250.30-43.24Q255.12-43.24 255.36-43.45L255.36-43.45L255.36-43.45Q257.39-43.45 257.39-39.96L257.39-39.96L257.39-39.96Q257.39-37.33 256.05-36.84L256.05-36.84L256.05-36.84Q254.71-36.96 250.82-36.96L250.82-36.96L244.91-36.96L244.91-13.70L244.91-13.70Q244.91-6.97 249.28-6.97L249.28-6.97L249.28-6.97Q252.12-6.97 256.01-8.11ZM262.50-11.77L262.50-11.77L262.50-11.77Q260.55-16.21 260.55-21.68L260.55-21.68L260.55-21.68Q260.55-27.15 262.50-31.57L262.50-31.57L262.50-31.57Q264.44-35.99 267.68-38.72L267.68-38.72L267.68-38.72Q270.93-41.46 274.94-42.92L274.94-42.92L274.94-42.92Q278.95-44.38 283.33-44.38L283.33-44.38L283.33-44.38Q287.66-44.38 291.68-42.92L291.68-42.92L291.68-42.92Q295.69-41.46 298.91-38.72L298.91-38.72L298.91-38.72Q302.13-35.99 304.08-31.57L304.08-31.57L304.08-31.57Q306.02-27.15 306.02-21.68L306.02-21.68L306.02-21.68Q306.02-16.21 304.08-11.77L304.08-11.77L304.08-11.77Q302.13-7.34 298.91-4.58L298.91-4.58L298.91-4.58Q295.69-1.82 291.68-0.36L291.68-0.36L291.68-0.36Q287.66 1.09 283.33 1.09L283.33 1.09L283.33 1.09Q278.95 1.09 274.94-0.36L274.94-0.36L274.94-0.36Q270.93-1.82 267.68-4.58L267.68-4.58L267.68-4.58Q264.44-7.34 262.50-11.77ZM273.96-33.31L273.96-33.31L273.96-33.31Q270.03-29.14 270.03-21.68L270.03-21.68L270.03-21.68Q270.03-14.23 273.96-10.03L273.96-10.03L273.96-10.03Q277.90-5.84 283.25-5.84L283.25-5.84L283.25-5.84Q285.80-5.84 288.15-6.85L288.15-6.85L288.15-6.85Q290.50-7.86 292.38-9.79L292.38-9.79L292.38-9.79Q294.27-11.71 295.40-14.79L295.40-14.79L295.40-14.79Q296.54-17.87 296.54-21.68L296.54-21.68L296.54-21.68Q296.54-25.49 295.40-28.57L295.40-28.57L295.40-28.57Q294.27-31.65 292.38-33.56L292.38-33.56L292.38-33.56Q290.50-35.46 288.15-36.47L288.15-36.47L288.15-36.47Q285.80-37.49 283.25-37.49L283.25-37.49L283.25-37.49Q277.90-37.49 273.96-33.31ZM323.89-39.72L323.89-39.72L323.89-37.08L323.89-37.08Q325.72-40.00 329.33-42.19L329.33-42.19L329.33-42.19Q332.93-44.38 336.21-44.38L336.21-44.38L336.21-44.38Q338.36-44.38 340.31-43.67L340.31-43.67L340.31-43.67Q342.25-42.96 343.69-41.14L343.69-41.14L343.69-41.14Q345.13-39.31 345.13-36.68L345.13-36.68L345.13-36.68Q345.13-29.46 337.47-29.46L337.47-29.46L337.47-29.46Q337.31-29.46 337.15-29.50L337.15-29.50L337.15-29.50Q336.98-29.54 336.88-29.63L336.88-29.63L336.88-29.63Q336.78-29.71 336.70-29.79L336.70-29.79L336.70-29.79Q336.62-29.87 336.56-30.03L336.56-30.03L336.56-30.03Q336.50-30.19 336.46-30.31L336.46-30.31L336.46-30.31Q336.42-30.44 336.38-30.70L336.38-30.70L336.38-30.70Q336.34-30.96 336.32-31.13L336.32-31.13L336.32-31.13Q336.30-31.29 336.28-31.59L336.28-31.59L336.28-31.59Q336.26-31.90 336.21-32.10L336.21-32.10L335.73-36.31L335.73-36.31Q334.63-36.84 333.34-36.84L333.34-36.84L333.34-36.84Q330.99-36.84 328.62-35.12L328.62-35.12L328.62-35.12Q326.25-33.39 325.11-31.13L325.11-31.13L325.11-10.62L325.11-10.62Q325.11-10.01 325.17-9.67L325.17-9.67L325.17-9.67Q325.23-9.32 325.45-8.88L325.45-8.88L325.45-8.88Q325.68-8.43 326.25-8.21L326.25-8.21L326.25-8.21Q326.81-7.98 327.70-7.98L327.70-7.98L327.70-7.98Q329.24-7.98 330.34-7.50L330.34-7.50L330.34-7.50Q331.43-7.01 331.43-6.04L331.43-6.04L331.43-6.04Q331.43-4.09 330.78-2.19L330.78-2.19L330.78-2.19Q330.14-0.28 328.88 0.32L328.88 0.32L328.88 0.32Q326.04 0 320.57 0L320.57 0L320.57 0Q315.10 0 312.18 0.32L312.18 0.32L312.18 0.32Q310.84-0.28 310.24-2.17L310.24-2.17L310.24-2.17Q309.63-4.05 309.63-6.04L309.63-6.04L309.63-6.04Q309.63-7.01 310.72-7.50L310.72-7.50L310.72-7.50Q311.82-7.98 313.36-7.98L313.36-7.98L313.36-7.98Q314.94-7.98 315.42-8.65L315.42-8.65L315.42-8.65Q315.91-9.32 315.91-10.54L315.91-10.54L315.91-31.85L315.91-31.85Q315.91-34.00 314.67-34.89L314.67-34.89L314.67-34.89Q313.44-35.79 309.91-35.95L309.91-35.95L309.91-35.95Q309.39-36.07 309.24-36.47L309.24-36.47L309.24-36.47Q309.10-36.88 309.10-38.22L309.10-38.22L309.10-38.22Q309.10-40.28 309.55-41.86L309.55-41.86L309.55-41.86Q309.99-43.45 310.44-43.69L310.44-43.69L310.44-43.69Q313.32-43.24 316.07-43.24L316.07-43.24L316.07-43.24Q317.77-43.24 319.66-43.47L319.66-43.47L319.66-43.47Q321.54-43.69 321.67-43.69L321.67-43.69L321.67-43.69Q323.08-43.69 323.49-42.98L323.49-42.98L323.49-42.98Q323.89-42.27 323.89-39.72ZM357.61-50.46L357.61-50.46L357.61-50.46Q356.64-50.46 355.63-50.64L355.63-50.64L355.63-50.64Q354.61-50.82 353.42-51.31L353.42-51.31L353.42-51.31Q352.22-51.79 351.47-52.85L351.47-52.85L351.47-52.85Q350.72-53.90 350.72-55.36L350.72-55.36L350.72-55.36Q350.72-60.35 357.45-60.35L357.45-60.35L357.45-60.35Q359.36-60.35 360.67-59.86L360.67-59.86L360.67-59.86Q361.99-59.37 362.62-58.56L362.62-58.56L362.62-58.56Q363.25-57.75 363.49-56.98L363.49-56.98L363.49-56.98Q363.73-56.21 363.73-55.32L363.73-55.32L363.73-55.32Q363.73-53.50 362.60-52.32L362.60-52.32L362.60-52.32Q361.46-51.15 360.19-50.80L360.19-50.80L360.19-50.80Q358.91-50.46 357.61-50.46ZM364.30-39.72L364.30-39.72L364.30-10.17L364.30-10.17Q364.30-9.56 364.36-9.22L364.36-9.22L364.36-9.22Q364.42-8.88 364.64-8.43L364.64-8.43L364.64-8.43Q364.87-7.98 365.44-7.76L365.44-7.76L365.44-7.76Q366.00-7.54 366.89-7.54L366.89-7.54L366.89-7.54Q368.43-7.54 369.53-7.05L369.53-7.05L369.53-7.05Q370.62-6.57 370.62-5.59L370.62-5.59L370.62-5.59Q370.62-0.85 369.29 0.32L369.29 0.32L369.29 0.32Q365.64 0 360.37 0L360.37 0L360.37 0Q354.90 0 350.16 0.32L350.16 0.32L350.16 0.32Q348.82-0.89 348.82-5.59L348.82-5.59L348.82-5.59Q348.82-6.57 349.91-7.05L349.91-7.05L349.91-7.05Q351.01-7.54 352.55-7.54L352.55-7.54L352.55-7.54Q354.13-7.54 354.61-8.21L354.61-8.21L354.61-8.21Q355.10-8.88 355.10-10.09L355.10-10.09L355.10-31.85L355.10-31.85Q355.10-34.00 353.86-34.89L353.86-34.89L353.86-34.89Q352.63-35.79 349.10-35.95L349.10-35.95L349.10-35.95Q348.58-36.07 348.43-36.47L348.43-36.47L348.43-36.47Q348.29-36.88 348.29-38.22L348.29-38.22L348.29-38.22Q348.29-40.28 348.74-41.86L348.74-41.86L348.74-41.86Q349.18-43.45 349.63-43.69L349.63-43.69L349.63-43.69Q352.75-43.24 355.67-43.24L355.67-43.24L355.67-43.24Q357.61-43.24 359.76-43.47L359.76-43.47L359.76-43.47Q361.91-43.69 362.03-43.69L362.03-43.69L362.03-43.69Q363.45-43.69 363.87-42.98L363.87-42.98L363.87-42.98Q364.30-42.27 364.30-39.72ZM415.32-23.95L415.32-23.95L415.32-23.95Q415.32-22.09 414.37-21.09L414.37-21.09L414.37-21.09Q413.42-20.10 410.79-20.10L410.79-20.10L382.82-20.10L382.82-20.10Q382.98-16.41 384.12-13.74L384.12-13.74L384.12-13.74Q385.25-11.06 387.12-9.54L387.12-9.54L387.12-9.54Q388.98-8.02 391.21-7.32L391.21-7.32L391.21-7.32Q393.44-6.61 396.07-6.61L396.07-6.61L396.07-6.61Q399.76-6.61 403.61-7.90L403.61-7.90L403.61-7.90Q407.46-9.20 410.58-11.55L410.58-11.55L410.58-11.55Q412.89-8.83 412.89-6.20L412.89-6.20L412.89-6.20Q412.89-4.46 410.58-2.78L410.58-2.78L410.58-2.78Q408.27-1.09 404.34 0L404.34 0L404.34 0Q400.41 1.09 396.15 1.09L396.15 1.09L396.15 1.09Q392.67 1.09 389.53 0.41L389.53 0.41L389.53 0.41Q386.39-0.28 383.37-2.01L383.37-2.01L383.37-2.01Q380.35-3.73 378.16-6.36L378.16-6.36L378.16-6.36Q375.97-9.00 374.63-13.13L374.63-13.13L374.63-13.13Q373.30-17.26 373.30-22.49L373.30-22.49L373.30-22.49Q373.30-27.60 375.24-31.85L375.24-31.85L375.24-31.85Q377.19-36.11 380.39-38.80L380.39-38.80L380.39-38.80Q383.59-41.50 387.54-42.96L387.54-42.96L387.54-42.96Q391.49-44.42 395.67-44.42L395.67-44.42L395.67-44.42Q398.75-44.42 401.59-43.65L401.59-43.65L401.59-43.65Q404.42-42.88 406.94-41.24L406.94-41.24L406.94-41.24Q409.45-39.60 411.31-37.22L411.31-37.22L411.31-37.22Q413.18-34.85 414.25-31.45L414.25-31.45L414.25-31.45Q415.32-28.04 415.32-23.95ZM383.06-26.38L407.14-26.38L407.14-26.38Q406.77-32.02 403.59-34.95L403.59-34.95L403.59-34.95Q400.41-37.89 395.99-37.89L395.99-37.89L395.99-37.89Q391.29-37.89 387.46-34.75L387.46-34.75L387.46-34.75Q383.63-31.61 383.06-26.38L383.06-26.38ZM455.12-10.74L455.12-10.74L455.12-10.74Q455.12-6.65 452.63-3.95L452.63-3.95L452.63-3.95Q450.14-1.26 446.04-0.08L446.04-0.08L446.04-0.08Q441.95 1.09 436.36 1.09L436.36 1.09L436.36 1.09Q427.77 1.09 422.92-1.38L422.92-1.38L422.92-1.38Q418.08-3.85 418.08-8.96L418.08-8.96L418.08-8.96Q418.08-14.75 425.17-14.75L425.17-14.75L425.17-14.75Q426.31-14.75 426.67-14.31L426.67-14.31L426.67-14.31Q427.04-13.86 427.04-12.60L427.04-12.60L427.04-7.09L427.04-7.09Q428.54-6.28 431.47-5.84L431.47-5.84L431.47-5.84Q434.41-5.39 437.41-5.39L437.41-5.39L437.41-5.39Q440.98-5.39 443.31-6.87L443.31-6.87L443.31-6.87Q445.64-8.35 445.64-10.94L445.64-10.94L445.64-10.94Q445.64-12.77 444.46-14.20L444.46-14.20L444.46-14.20Q443.29-15.64 441.38-16.54L441.38-16.54L441.38-16.54Q439.48-17.43 437.03-18.34L437.03-18.34L437.03-18.34Q434.57-19.25 432.04-20.02L432.04-20.02L432.04-20.02Q429.51-20.79 427.06-21.97L427.06-21.97L427.06-21.97Q424.60-23.14 422.70-24.52L422.70-24.52L422.70-24.52Q420.80-25.90 419.62-28.13L419.62-28.13L419.62-28.13Q418.44-30.35 418.44-33.15L418.44-33.15L418.44-33.15Q418.44-36.76 421.12-39.39L421.12-39.39L421.12-39.39Q423.79-42.03 427.66-43.20L427.66-43.20L427.66-43.20Q431.54-44.38 435.95-44.38L435.95-44.38L435.95-44.38Q454.11-44.38 454.11-33.84L454.11-33.84L454.11-33.84Q454.11-33.19 453.89-32.46L453.89-32.46L453.89-32.46Q453.66-31.73 453.03-30.76L453.03-30.76L453.03-30.76Q452.41-29.79 450.93-29.16L450.93-29.16L450.93-29.16Q449.45-28.53 447.30-28.53L447.30-28.53L447.30-28.53Q446.90-28.53 446.63-28.61L446.63-28.61L446.63-28.61Q446.37-28.69 446.23-28.79L446.23-28.79L446.23-28.79Q446.08-28.90 445.98-29.16L445.98-29.16L445.98-29.16Q445.88-29.42 445.86-29.54L445.86-29.54L445.86-29.54Q445.84-29.67 445.78-30.09L445.78-30.09L445.78-30.09Q445.72-30.52 445.72-30.68L445.72-30.68L445.15-36.35L445.15-36.35Q444.58-36.92 441.65-37.61L441.65-37.61L441.65-37.61Q438.71-38.30 436.60-38.30L436.60-38.30L436.60-38.30Q432.47-38.30 430.46-36.76L430.46-36.76L430.46-36.76Q428.46-35.22 428.46-32.87L428.46-32.87L428.46-32.87Q428.46-31.17 429.93-29.87L429.93-29.87L429.93-29.87Q431.41-28.57 433.76-27.66L433.76-27.66L433.76-27.66Q436.11-26.75 438.95-25.86L438.95-25.86L438.95-25.86Q441.79-24.96 444.63-23.73L444.63-23.73L444.63-23.73Q447.46-22.49 449.81-20.91L449.81-20.91L449.81-20.91Q452.16-19.33 453.64-16.72L453.64-16.72L453.64-16.72Q455.12-14.10 455.12-10.74Z" fill="#3b4368"></path></g></g><style>text {
  font-size: 64px;
  font-family: Arial Black;
  dominant-baseline: central;
  text-anchor: middle;
}</style></svg>