<svg width="180.35249023437498px" height="178.39736328125px" xmlns="http://www.w3.org/2000/svg" viewBox="159.82375488281252 -14.198681640624997 180.35249023437498 178.39736328125" style="background: rgb(255, 255, 255);" preserveAspectRatio="xMidYMid"><defs>
  <filter id="editing-scratch" x="-100%" y="-100%" width="300%" height="300%">
    <!-- COLOR -->
    <feFlood flood-color="#689cc5" flood-opacity="0.75" result="COLOR-blu"></feFlood>
    <feFlood flood-color="#5e6fa3" flood-opacity="0.4" result="COLOR-red"></feFlood>
    <!-- COLOR END -->

    <!-- Texture -->
    <feTurbulence baseFrequency=".05" type="fractalNoise" numOctaves="3" seed="0" result="Texture_10"></feTurbulence>
    <feColorMatrix type="matrix" values="0 0 0 0 0,
    0 0 0 0 0,
    0 0 0 0 0,
    0 0 0 -2.1 1.1" in="Texture_10" result="Texture_20"></feColorMatrix>

    <feColorMatrix result="Texture_30" type="matrix" values="0 0 0 0 0,
    0 0 0 0 0,
    0 0 0 0 0,
    0 0 0 -1.7 1.8" in="Texture_10"></feColorMatrix>
    <!-- Texture -->

    <!-- FILL -->
    <feOffset dx="-3" dy="4" in="SourceAlpha" result="FILL_10"></feOffset>
    <feDisplacementMap scale="17" in="FILL_10" in2="Texture_10" result="FILL_20"></feDisplacementMap>
    <feComposite operator="in" in="Texture_30" in2="FILL_20" result="FILL_40"></feComposite>
    <feComposite operator="in" in="COLOR-blu" in2="FILL_40" result="FILL_50"></feComposite>
    <!-- FILL END-->

    <!-- OUTLINE -->
    <feMorphology operator="dilate" radius="3" in="SourceGraphic" result="OUTLINE_10"></feMorphology>
    <feComposite operator="out" in="OUTLINE_10" in2="SourceGraphic" result="OUTLINE_20"></feComposite>
    <feDisplacementMap scale="7" in="OUTLINE_20" in2="Texture_10" result="OUTLINE_30"></feDisplacementMap>
    <feComposite operator="arithmetic" k2="-1" k3="1" in="Texture_20" in2="OUTLINE_30" result="OUTLINE_40"></feComposite>
    <!-- OUTLINE END-->

    <!-- BEVEL OUTLINE -->
    <feConvolveMatrix order="8,8" divisor="1" kernelMatrix="1 0 0 0 0 0 0 0 0 1 0 0 0 0 0 0 0 0 1 0 0 0 0 0 0 0 0 1 0 0 0 0 0 0 0 0 1 0 0 0 0 0 0 0 0 1 0 0 0 0 0 0 0 0 1 0 0 0 0 0 0 0 0 1 " in="SourceGraphic" result="BEVEL_10"></feConvolveMatrix>
    <feMorphology operator="dilate" radius="2" in="BEVEL_10" result="BEVEL_20"></feMorphology>
    <feComposite operator="out" in="BEVEL_20" in2="BEVEL_10" result="BEVEL_30"></feComposite>
    <feDisplacementMap scale="7" in="BEVEL_30" in2="Texture_10" result="BEVEL_40"></feDisplacementMap>
    <feComposite operator="arithmetic" k2="-1" k3="1" in="Texture_20" in2="BEVEL_40" result="BEVEL_50"></feComposite>
    <feOffset dx="-7" dy="-7" in="BEVEL_50" result="BEVEL_60"></feOffset>
    <feComposite operator="out" in="BEVEL_60" in2="OUTLINE_10" result="BEVEL_70"></feComposite>
    <!-- BEVEL OUTLINE END -->

    <!-- BEVEL FILL -->
    <feOffset dx="-9" dy="-9" in="BEVEL_10" result="BEVEL-FILL_10"></feOffset>
    <feComposite operator="out" in="BEVEL-FILL_10" in2="OUTLINE_10" result="BEVEL-FILL_20"></feComposite>
    <feDisplacementMap scale="17" in="BEVEL-FILL_20" in2="Texture_10" result="BEVEL-FILL_30"></feDisplacementMap>
    <feComposite operator="in" in="COLOR-red" in2="BEVEL-FILL_30" result="BEVEL-FILL_50"></feComposite> <!-- -->
    <!-- BEVEL FILL END-->

    <feMerge result="merge2">
     <feMergeNode in="BEVEL-FILL_50"></feMergeNode>
     <feMergeNode in="BEVEL_70"></feMergeNode>
     <feMergeNode in="FILL_50"></feMergeNode>
      <feMergeNode in="OUTLINE_40"></feMergeNode>
    </feMerge>
  </filter>
</defs>
<g filter="url(#editing-scratch)"><g transform="translate(190.75437307357788, 106.20062446594238)"><path d="M58.40-19.13L58.40-19.13L58.44-2.15L58.44-2.15Q56.98-0.69 55.16-0.69L55.16-0.69L55.16-0.69Q54.71-0.69 54.25-0.79L54.25-0.79L54.25-0.79Q53.78-0.89 53.25-1.11L53.25-1.11L53.25-1.11Q52.73-1.34 52.40-1.48L52.40-1.48L52.40-1.48Q52.08-1.62 51.45-1.97L51.45-1.97L51.45-1.97Q50.82-2.31 50.66-2.39L50.66-2.39L50.66-2.39Q47.01-0.89 42.17 0.10L42.17 0.10L42.17 0.10Q37.33 1.09 33.07 1.09L33.07 1.09L33.07 1.09Q26.99 1.09 21.88-0.65L21.88-0.65L21.88-0.65Q16.78-2.39 13.21-5.35L13.21-5.35L13.21-5.35Q9.65-8.31 7.15-12.26L7.15-12.26L7.15-12.26Q4.66-16.21 3.49-20.63L3.49-20.63L3.49-20.63Q2.31-25.05 2.31-29.75L2.31-29.75L2.31-29.75Q2.31-36.11 4.38-41.86L4.38-41.86L4.38-41.86Q6.44-47.62 10.09-51.92L10.09-51.92L10.09-51.92Q13.74-56.21 19.13-58.74L19.13-58.74L19.13-58.74Q24.52-61.28 30.76-61.28L30.76-61.28L30.76-61.28Q35.70-61.28 40.87-59.51L40.87-59.51L40.87-59.51Q46.04-57.75 49.04-54.31L49.04-54.31L49.04-54.31Q49.04-60.39 50.62-60.39L50.62-60.39L55.16-60.39L55.16-60.39Q57.10-60.39 57.10-56.17L57.10-56.17L57.10-46.16L57.10-46.16Q57.10-43.85 56.88-42.78L56.88-42.78L56.88-42.78Q56.66-41.70 56.31-41.44L56.31-41.44L56.31-41.44Q55.97-41.18 55.16-41.09L55.16-41.09L51.79-41.09L51.79-41.09Q51.47-41.09 50.64-42.03L50.64-42.03L50.64-42.03Q49.81-42.96 48.71-44.36L48.71-44.36L48.71-44.36Q47.62-45.76 45.86-47.40L45.86-47.40L45.86-47.40Q44.09-49.04 42.11-50.44L42.11-50.44L42.11-50.44Q40.12-51.83 37.31-52.77L37.31-52.77L37.31-52.77Q34.49-53.70 31.45-53.70L31.45-53.70L31.45-53.70Q27.68-53.70 24.48-52.34L24.48-52.34L24.48-52.34Q21.28-50.98 19.05-48.69L19.05-48.69L19.05-48.69Q16.82-46.40 15.22-43.34L15.22-43.34L15.22-43.34Q13.62-40.28 12.87-36.88L12.87-36.88L12.87-36.88Q12.12-33.48 12.12-29.91L12.12-29.91L12.12-29.91Q12.12-26.50 12.99-23.28L12.99-23.28L12.99-23.28Q13.86-20.06 15.68-17.18L15.68-17.18L15.68-17.18Q17.51-14.31 20.08-12.14L20.08-12.14L20.08-12.14Q22.65-9.97 26.28-8.69L26.28-8.69L26.28-8.69Q29.91-7.42 34.16-7.42L34.16-7.42L34.16-7.42Q41.99-7.42 49.44-9.28L49.44-9.28L49.44-17.63L49.44-17.63Q49.44-19.01 49.24-19.96L49.24-19.96L49.24-19.96Q49.04-20.91 48.45-21.88L48.45-21.88L48.45-21.88Q47.86-22.86 46.55-23.34L46.55-23.34L46.55-23.34Q45.23-23.83 43.24-23.83L43.24-23.83L43.24-23.83Q42.47-23.83 42.21-24.52L42.21-24.52L42.21-24.52Q41.95-25.21 41.95-26.99L41.95-26.99L41.95-26.99Q41.95-29.71 43.28-31.85L43.28-31.85L43.28-31.85Q48.51-31.41 53.58-31.41L53.58-31.41L53.58-31.41Q55.64-31.41 57.67-31.51L57.67-31.51L57.67-31.51Q59.70-31.61 60.99-31.73L60.99-31.73L60.99-31.73Q62.29-31.85 62.57-31.85L62.57-31.85L62.57-31.85Q62.90-31.53 63.20-30.33L63.20-30.33L63.20-30.33Q63.51-29.14 63.51-28.21L63.51-28.21L63.51-28.21Q63.51-26.63 62.98-25.71L62.98-25.71L62.98-25.71Q62.45-24.80 61.70-24.40L61.70-24.40L61.70-24.40Q60.95-23.99 60.20-23.55L60.20-23.55L60.20-23.55Q59.45-23.10 58.93-22.03L58.93-22.03L58.93-22.03Q58.40-20.95 58.40-19.13ZM75.54 0.45L75.54 0.45L71.61 0.45L71.61 0.45Q68.98-11.02 68.98-16.86L68.98-16.86L68.98-16.86Q68.98-17.79 70.80-18.40L70.80-18.40L70.80-18.40Q72.63-19.01 74.61-19.01L74.61-19.01L74.61-19.01Q75.42-19.01 75.91-18.89L75.91-18.89L75.91-18.89Q77.20-15.60 79.51-13.05L79.51-13.05L79.51-13.05Q81.82-10.50 84.56-9.04L84.56-9.04L84.56-9.04Q87.30-7.58 90.03-6.83L90.03-6.83L90.03-6.83Q92.77-6.08 95.32-6.08L95.32-6.08L95.32-6.08Q99.98-6.08 102.92-8.17L102.92-8.17L102.92-8.17Q105.86-10.25 105.86-14.31L105.86-14.31L105.86-14.31Q105.86-17.02 104.54-19.07L104.54-19.07L104.54-19.07Q103.22-21.11 101.01-22.39L101.01-22.39L101.01-22.39Q98.81-23.67 95.95-24.64L95.95-24.64L95.95-24.64Q93.09-25.61 89.91-26.46L89.91-26.46L89.91-26.46Q86.73-27.32 83.55-28.25L83.55-28.25L83.55-28.25Q80.37-29.18 77.51-30.60L77.51-30.60L77.51-30.60Q74.65-32.02 72.44-33.90L72.44-33.90L72.44-33.90Q70.23-35.79 68.92-38.78L68.92-38.78L68.92-38.78Q67.60-41.78 67.60-45.67L67.60-45.67L67.60-45.67Q67.60-50.66 70.68-54.29L70.68-54.29L70.68-54.29Q73.76-57.91 78.44-59.60L78.44-59.60L78.44-59.60Q83.12-61.28 88.63-61.28L88.63-61.28L88.63-61.28Q97.23-61.28 103.22-56.98L103.22-56.98L103.22-56.98Q103.63-57.79 103.85-58.56L103.85-58.56L103.85-58.56Q104.07-59.33 104.07-59.62L104.07-59.62L104.07-59.62Q104.07-59.90 104.42-60.14L104.42-60.14L104.42-60.14Q104.76-60.39 105.29-60.41L105.29-60.41L105.29-60.41Q105.82-60.43 107.19-60.43L107.19-60.43L107.19-60.43Q108.41-60.43 111.04-60.22L111.04-60.22L111.04-60.22Q113.60-48.92 113.60-44.13L113.60-44.13L113.60-44.13Q113.60-43.49 111.47-43.08L111.47-43.08L111.47-43.08Q109.34-42.68 107.32-42.68L107.32-42.68L106.30-42.68L106.30-42.68Q104.80-47.98 100.35-51.41L100.35-51.41L100.35-51.41Q95.89-54.83 89.12-54.83L89.12-54.83L89.12-54.83Q83.41-54.83 80.53-52.56L80.53-52.56L80.53-52.56Q77.65-50.29 77.65-46.36L77.65-46.36L77.65-46.36Q77.65-44.05 78.97-42.27L78.97-42.27L78.97-42.27Q80.28-40.49 82.51-39.33L82.51-39.33L82.51-39.33Q84.74-38.18 87.62-37.24L87.62-37.24L87.62-37.24Q90.50-36.31 93.70-35.42L93.70-35.42L93.70-35.42Q96.90-34.53 100.10-33.52L100.10-33.52L100.10-33.52Q103.30-32.50 106.18-31.00L106.18-31.00L106.18-31.00Q109.06-29.50 111.29-27.56L111.29-27.56L111.29-27.56Q113.52-25.61 114.83-22.59L114.83-22.59L114.83-22.59Q116.15-19.57 116.15-15.77L116.15-15.77L116.15-15.77Q116.15-11.43 114.45-8.09L114.45-8.09L114.45-8.09Q112.75-4.74 109.81-2.80L109.81-2.80L109.81-2.80Q106.87-0.85 103.24 0.12L103.24 0.12L103.24 0.12Q99.62 1.09 95.44 1.09L95.44 1.09L95.44 1.09Q90.98 1.09 86.59-0.41L86.59-0.41L86.59-0.41Q82.19-1.90 78.62-4.58L78.62-4.58L77.93-0.57L77.93-0.57Q77.85-0.20 77.71-0.02L77.71-0.02L77.71-0.02Q77.57 0.16 77.04 0.30L77.04 0.30L77.04 0.30Q76.52 0.45 75.54 0.45Z" fill="#3b4368"></path></g></g><style>text {
  font-size: 64px;
  font-family: Arial Black;
  dominant-baseline: central;
  text-anchor: middle;
}</style></svg>